<svg width="348" height="364" viewBox="0 0 348 364" fill="none" xmlns="http://www.w3.org/2000/svg">
<path d="M0 137.916H63.3745C63.9612 116.425 66.6967 96.1778 71.2586 77.8281H18.5401C8.45005 95.9203 1.31889 116.307 0 137.916H0Z" fill="#F89604"/>
<path d="M63.3745 155.084H0C1.31889 176.693 8.45005 197.08 18.5401 215.172H71.2592C66.6973 196.822 63.9612 176.575 63.3745 155.084Z" fill="#1A1F8C"/>
<path d="M143.328 138.088V78H89.5001C84.6094 96.1843 81.6475 116.615 81 138.088H143.328Z" fill="#F89604"/>
<path d="M136.338 60.6602V0C116.771 5.24996 99.4387 29.2674 88 60.6602H136.338Z" fill="#F89604"/>
<path d="M136.338 292.66V232H88C99.4387 263.393 116.771 287.41 136.338 292.66Z" fill="#1A1F8C"/>
<path d="M168 0V60.6602H216.338C204.9 29.2674 187.567 5.24996 168 0Z" fill="#F89604"/>
<path d="M223.328 138.088C222.68 116.615 219.719 96.1843 214.828 78H161V138.088H223.328Z" fill="#F89604"/>
<path d="M143.328 155H81C81.6481 176.474 84.6094 196.904 89.5001 215.088H143.328V155Z" fill="#1A1F8C"/>
<path d="M228.757 60.6598H275.072C256.576 36.3539 230.538 15.8199 200.202 6.14746C211.861 19.3691 221.612 39.2513 228.757 60.6598Z" fill="#F89604"/>
<path d="M76.2434 232.34H29.9275C48.4235 256.646 74.4623 277.18 104.798 286.852C93.1393 273.63 83.3883 253.748 76.2434 232.34Z" fill="#1A1F8C"/>
<path d="M76.2434 60.6598C83.3877 39.2513 93.1393 19.3691 104.797 6.14746C74.4622 15.8199 48.4235 36.3539 29.9275 60.6598H76.2434Z" fill="#F89604"/>
<path d="M228.757 232.34C221.612 253.748 211.861 273.63 200.203 286.852C230.538 277.18 256.576 256.646 275.073 232.34H228.757Z" fill="#1A1F8C"/>
<path d="M161 155V215.088H214.828C219.719 196.904 222.681 176.474 223.328 155H161Z" fill="#1A1F8C"/>
<path d="M233.741 77.8281C238.303 96.1778 241.039 116.425 241.625 137.916H305C303.681 116.307 296.55 95.9203 286.46 77.8281H233.741Z" fill="#F89604"/>
<path d="M161.436 232.34V293C181.003 287.75 198.335 263.733 209.774 232.34H161.436Z" fill="#1A1F8C"/>
<path d="M305 155.084H241.625C241.039 176.575 238.303 196.822 233.741 215.172H286.461C296.55 197.08 303.681 176.693 305 155.084Z" fill="#1A1F8C"/>
<path d="M16.2 341.14C15.2267 341.14 14.3467 340.973 13.56 340.64C12.7867 340.307 12.1733 339.827 11.72 339.2C11.2667 338.573 11.0333 337.833 11.02 336.98H14.02C14.06 337.553 14.26 338.007 14.62 338.34C14.9933 338.673 15.5 338.84 16.14 338.84C16.7933 338.84 17.3067 338.687 17.68 338.38C18.0533 338.06 18.24 337.647 18.24 337.14C18.24 336.727 18.1133 336.387 17.86 336.12C17.6067 335.853 17.2867 335.647 16.9 335.5C16.5267 335.34 16.0067 335.167 15.34 334.98C14.4333 334.713 13.6933 334.453 13.12 334.2C12.56 333.933 12.0733 333.54 11.66 333.02C11.26 332.487 11.06 331.78 11.06 330.9C11.06 330.073 11.2667 329.353 11.68 328.74C12.0933 328.127 12.6733 327.66 13.42 327.34C14.1667 327.007 15.02 326.84 15.98 326.84C17.42 326.84 18.5867 327.193 19.48 327.9C20.3867 328.593 20.8867 329.567 20.98 330.82H17.9C17.8733 330.34 17.6667 329.947 17.28 329.64C16.9067 329.32 16.4067 329.16 15.78 329.16C15.2333 329.16 14.7933 329.3 14.46 329.58C14.14 329.86 13.98 330.267 13.98 330.8C13.98 331.173 14.1 331.487 14.34 331.74C14.5933 331.98 14.9 332.18 15.26 332.34C15.6333 332.487 16.1533 332.66 16.82 332.86C17.7267 333.127 18.4667 333.393 19.04 333.66C19.6133 333.927 20.1067 334.327 20.52 334.86C20.9333 335.393 21.14 336.093 21.14 336.96C21.14 337.707 20.9467 338.4 20.56 339.04C20.1733 339.68 19.6067 340.193 18.86 340.58C18.1133 340.953 17.2267 341.14 16.2 341.14ZM26.3675 327.04V341H23.5675V327.04H26.3675ZM33.9539 341.14C32.9806 341.14 32.1006 340.973 31.3139 340.64C30.5406 340.307 29.9272 339.827 29.4739 339.2C29.0206 338.573 28.7872 337.833 28.7739 336.98H31.7739C31.8139 337.553 32.0139 338.007 32.3739 338.34C32.7472 338.673 33.2539 338.84 33.8939 338.84C34.5472 338.84 35.0606 338.687 35.4339 338.38C35.8072 338.06 35.9939 337.647 35.9939 337.14C35.9939 336.727 35.8672 336.387 35.6139 336.12C35.3606 335.853 35.0406 335.647 34.6539 335.5C34.2806 335.34 33.7606 335.167 33.0939 334.98C32.1872 334.713 31.4472 334.453 30.8739 334.2C30.3139 333.933 29.8272 333.54 29.4139 333.02C29.0139 332.487 28.8139 331.78 28.8139 330.9C28.8139 330.073 29.0206 329.353 29.4339 328.74C29.8472 328.127 30.4272 327.66 31.1739 327.34C31.9206 327.007 32.7739 326.84 33.7339 326.84C35.1739 326.84 36.3406 327.193 37.2339 327.9C38.1406 328.593 38.6406 329.567 38.7339 330.82H35.6539C35.6272 330.34 35.4206 329.947 35.0339 329.64C34.6606 329.32 34.1606 329.16 33.5339 329.16C32.9872 329.16 32.5472 329.3 32.2139 329.58C31.8939 329.86 31.7339 330.267 31.7339 330.8C31.7339 331.173 31.8539 331.487 32.0939 331.74C32.3472 331.98 32.6539 332.18 33.0139 332.34C33.3872 332.487 33.9072 332.66 34.5739 332.86C35.4806 333.127 36.2206 333.393 36.7939 333.66C37.3672 333.927 37.8606 334.327 38.2739 334.86C38.6872 335.393 38.8939 336.093 38.8939 336.96C38.8939 337.707 38.7006 338.4 38.3139 339.04C37.9272 339.68 37.3606 340.193 36.6139 340.58C35.8672 340.953 34.9806 341.14 33.9539 341.14ZM50.8214 327.04V329.3H47.1014V341H44.3014V329.3H40.5814V327.04H50.8214ZM55.6644 329.3V332.8H60.3644V335.02H55.6644V338.72H60.9644V341H52.8644V327.02H60.9644V329.3H55.6644ZM78.7289 327.04V341H75.9289V331.92L72.1889 341H70.0689L66.3089 331.92V341H63.5089V327.04H66.6889L71.1289 337.42L75.5689 327.04H78.7289ZM94.1428 341L89.0628 334.78V341H86.2628V327.04H89.0628V333.3L94.1428 327.04H97.5228L91.7628 333.96L97.6828 341H94.1428ZM102.325 329.3V332.8H107.025V335.02H102.325V338.72H107.625V341H99.5245V327.02H107.625V329.3H102.325ZM118.729 338.34H113.169L112.249 341H109.309L114.329 327.02H117.589L122.609 341H119.649L118.729 338.34ZM117.969 336.1L115.949 330.26L113.929 336.1H117.969ZM136.425 341H133.625L127.285 331.42V341H124.485V327.02H127.285L133.625 336.62V327.02H136.425V341ZM148.913 331.24C148.593 330.653 148.153 330.207 147.593 329.9C147.033 329.593 146.379 329.44 145.633 329.44C144.806 329.44 144.073 329.627 143.433 330C142.793 330.373 142.293 330.907 141.933 331.6C141.573 332.293 141.393 333.093 141.393 334C141.393 334.933 141.573 335.747 141.933 336.44C142.306 337.133 142.819 337.667 143.473 338.04C144.126 338.413 144.886 338.6 145.753 338.6C146.819 338.6 147.693 338.32 148.372 337.76C149.053 337.187 149.499 336.393 149.713 335.38H144.913V333.24H152.473V335.68C152.286 336.653 151.886 337.553 151.273 338.38C150.659 339.207 149.866 339.873 148.893 340.38C147.933 340.873 146.853 341.12 145.653 341.12C144.306 341.12 143.086 340.82 141.993 340.22C140.913 339.607 140.059 338.76 139.433 337.68C138.819 336.6 138.513 335.373 138.513 334C138.513 332.627 138.819 331.4 139.433 330.32C140.059 329.227 140.913 328.38 141.993 327.78C143.086 327.167 144.299 326.86 145.633 326.86C147.206 326.86 148.573 327.247 149.733 328.02C150.893 328.78 151.693 329.853 152.133 331.24H148.913ZM164.264 331.24C163.944 330.653 163.504 330.207 162.944 329.9C162.384 329.593 161.731 329.44 160.984 329.44C160.157 329.44 159.424 329.627 158.784 330C158.144 330.373 157.644 330.907 157.284 331.6C156.924 332.293 156.744 333.093 156.744 334C156.744 334.933 156.924 335.747 157.284 336.44C157.657 337.133 158.171 337.667 158.824 338.04C159.477 338.413 160.237 338.6 161.104 338.6C162.171 338.6 163.044 338.32 163.724 337.76C164.404 337.187 164.851 336.393 165.064 335.38H160.264V333.24H167.824V335.68C167.637 336.653 167.237 337.553 166.624 338.38C166.011 339.207 165.217 339.873 164.244 340.38C163.284 340.873 162.204 341.12 161.004 341.12C159.657 341.12 158.437 340.82 157.344 340.22C156.264 339.607 155.411 338.76 154.784 337.68C154.171 336.6 153.864 335.373 153.864 334C153.864 332.627 154.171 331.4 154.784 330.32C155.411 329.227 156.264 328.38 157.344 327.78C158.437 327.167 159.651 326.86 160.984 326.86C162.557 326.86 163.924 327.247 165.084 328.02C166.244 328.78 167.044 329.853 167.484 331.24H164.264ZM176.376 341.14C175.069 341.14 173.869 340.833 172.776 340.22C171.682 339.607 170.816 338.76 170.176 337.68C169.536 336.587 169.216 335.353 169.216 333.98C169.216 332.62 169.536 331.4 170.176 330.32C170.816 329.227 171.682 328.373 172.776 327.76C173.869 327.147 175.069 326.84 176.376 326.84C177.696 326.84 178.896 327.147 179.976 327.76C181.069 328.373 181.929 329.227 182.556 330.32C183.196 331.4 183.516 332.62 183.516 333.98C183.516 335.353 183.196 336.587 182.556 337.68C181.929 338.76 181.069 339.607 179.976 340.22C178.882 340.833 177.682 341.14 176.376 341.14ZM176.376 338.64C177.216 338.64 177.956 338.453 178.596 338.08C179.236 337.693 179.736 337.147 180.096 336.44C180.456 335.733 180.636 334.913 180.636 333.98C180.636 333.047 180.456 332.233 180.096 331.54C179.736 330.833 179.236 330.293 178.596 329.92C177.956 329.547 177.216 329.36 176.376 329.36C175.536 329.36 174.789 329.547 174.136 329.92C173.496 330.293 172.996 330.833 172.636 331.54C172.276 332.233 172.096 333.047 172.096 333.98C172.096 334.913 172.276 335.733 172.636 336.44C172.996 337.147 173.496 337.693 174.136 338.08C174.789 338.453 175.536 338.64 176.376 338.64ZM195.099 327.04V329.3H191.379V341H188.579V329.3H184.859V327.04H195.099ZM205.702 338.34H200.142L199.222 341H196.282L201.302 327.02H204.562L209.582 341H206.622L205.702 338.34ZM204.942 336.1L202.922 330.26L200.902 336.1H204.942ZM220.018 338.34H214.458L213.538 341H210.598L215.618 327.02H218.878L223.898 341H220.938L220.018 338.34ZM219.258 336.1L217.238 330.26L215.218 336.1H219.258ZM237.715 341H234.915L228.575 331.42V341H225.775V327.02H228.575L234.915 336.62V327.02H237.715V341ZM253.807 338.34H248.247L247.327 341H244.387L249.407 327.02H252.667L257.687 341H254.727L253.807 338.34ZM253.047 336.1L251.027 330.26L249.007 336.1H253.047ZM268.124 338.34H262.564L261.644 341H258.704L263.724 327.02H266.984L272.004 341H269.044L268.124 338.34ZM267.364 336.1L265.344 330.26L263.324 336.1H267.364ZM292.54 327.04L288.64 341H285.34L282.72 331.06L279.98 341L276.7 341.02L272.94 327.04H275.94L278.4 337.88L281.24 327.04H284.36L287.04 337.82L289.52 327.04H292.54Z" fill="#1A1F8C"/>
</svg>
